<svg id="Layer_1" height="512" viewBox="0 0 64 64" width="512" xmlns="http://www.w3.org/2000/svg" xmlns:xlink="http://www.w3.org/1999/xlink" data-name="Layer 1"><linearGradient id="linear-gradient" gradientUnits="userSpaceOnUse" x1="50.216" x2="10.968" y1="-5.421" y2="62.559"><stop offset="0" stop-color="#ea5a6b"/><stop offset=".1812" stop-color="#b9569b"/><stop offset=".3509" stop-color="#9052c1"/><stop offset=".4385" stop-color="#8151d0"/><stop offset=".4832" stop-color="#7d51d4"/><stop offset=".8058" stop-color="#634fed"/><stop offset="1" stop-color="#5a4ef6"/></linearGradient><path d="m61 46a2 2 0 0 1 -2 2h-4a2 2 0 0 1 0-4h4a2 2 0 0 1 2 2zm-7.6865-6.3135a1.9926 1.9926 0 0 0 1.414-.5859l2.95-2.95a2 2 0 0 0 -2.8275-2.8283l-2.95 2.95a2 2 0 0 0 1.4141 3.414zm1.414 13.2129a2 2 0 0 0 -2.8281 2.8281l2.95 2.95a2 2 0 0 0 2.8283-2.8275zm-3.7275-6.8994a10.0471 10.0471 0 0 1 -8 9.7893v.2107a5.9955 5.9955 0 0 1 -11.4393 2.5167l-10.5607-5.2804v8.7637a2 2 0 0 1 -2 2h-5a2 2 0 0 1 -1.94-1.5151l-2.6288-10.5137a6.9971 6.9971 0 0 1 .5688-13.9712h8.5273l13.0334-6.5167a5.9955 5.9955 0 0 1 11.4393 2.5167v2.212a9.9908 9.9908 0 0 1 8 9.788zm-41 2h7v-6h-7a3 3 0 0 0 0 6zm7 4h-3.4385l2 8h1.4385zm4-3.2358 10 5v-17.5284l-10 5zm18-14.7642a2 2 0 0 0 -4 0v22a2 2 0 0 0 4 0zm8 12a6 6 0 0 0 -4-5.6581v11.3093a6.0313 6.0313 0 0 0 4-5.6512zm17-40v14a6.0066 6.0066 0 0 1 -6 6h-52a6.0066 6.0066 0 0 1 -6-6v-14a6.0066 6.0066 0 0 1 6-6h52a6.0066 6.0066 0 0 1 6 6zm-4 0a2.002 2.002 0 0 0 -2-2h-52a2.002 2.002 0 0 0 -2 2v14a2.002 2.002 0 0 0 2 2h52a2.002 2.002 0 0 0 2-2zm-13 4a2 2 0 0 0 0-4h-4a4.0045 4.0045 0 0 0 -4 4v1a4.0045 4.0045 0 0 0 4 4h2v1h-4a2 2 0 0 0 0 4h4a4.0045 4.0045 0 0 0 4-4v-1a4.0045 4.0045 0 0 0 -4-4h-2v-1zm-10 2v2a6.0066 6.0066 0 0 1 -6 6h-2a2 2 0 0 1 -2-2v-10a2 2 0 0 1 2-2h2a6.0066 6.0066 0 0 1 6 6zm-4 0a2.002 2.002 0 0 0 -2-2v6a2.002 2.002 0 0 0 2-2zm-8-2v8a2 2 0 0 1 -4 0v-2h-2v2a2 2 0 0 1 -4 0v-8a4.0045 4.0045 0 0 1 4-4h2a4.0045 4.0045 0 0 1 4 4zm-4 2v-2h-2v2z" fill="url(#linear-gradient)"/></svg>